<?xml version="1.0" standalone="no"?>
<!DOCTYPE svg PUBLIC "-//W3C//DTD SVG 20010904//EN"
 "http://www.w3.org/TR/2001/REC-SVG-20010904/DTD/svg10.dtd">
<svg version="1.0" xmlns="http://www.w3.org/2000/svg"
 width="1200.000000pt" height="1200.000000pt" viewBox="0 0 1200.000000 1200.000000"
 preserveAspectRatio="xMidYMid meet">

<g transform="translate(0.000000,1200.000000) scale(0.100000,-0.100000)"
fill="#000000" stroke="none">
<path d="M5328 9972 c-103 -268 -299 -779 -436 -1137 -138 -357 -422 -1098
-632 -1645 -210 -547 -460 -1197 -555 -1445 -95 -247 -311 -810 -480 -1250
-169 -440 -351 -915 -405 -1055 -54 -140 -110 -285 -124 -322 l-25 -67 20 -25
20 -26 524 0 c406 0 525 3 532 13 6 6 119 314 252 682 134 369 314 866 401
1105 l157 435 1521 3 c1210 2 1521 0 1525 -10 4 -11 411 -1067 749 -1943 55
-143 102 -266 105 -272 4 -10 128 -13 573 -13 l568 0 17 26 c18 28 19 27 -211
584 -24 58 -107 260 -184 450 -77 190 -158 388 -180 440 -22 52 -103 250 -180
440 -78 190 -190 464 -250 610 -245 599 -652 1593 -1107 2705 -101 248 -201
493 -223 545 -22 52 -103 250 -180 440 -77 190 -158 388 -180 440 -22 52 -102
248 -178 435 l-140 340 -553 2 -554 3 -187 -488z m835 -817 c135 -412 199
-586 850 -2315 97 -256 198 -523 225 -595 l49 -130 -1195 -3 c-657 -1 -1197
-1 -1198 1 -2 2 181 496 407 1098 495 1322 574 1555 689 2029 23 96 47 193 52
215 l11 40 18 -55 c9 -30 51 -158 92 -285z"/>
</g>
</svg>
