<?xml version="1.0" standalone="no"?>
<!DOCTYPE svg PUBLIC "-//W3C//DTD SVG 20010904//EN"
 "http://www.w3.org/TR/2001/REC-SVG-20010904/DTD/svg10.dtd">
<svg version="1.0" xmlns="http://www.w3.org/2000/svg"
 width="600.000000pt" height="600.000000pt" viewBox="0 0 600.000000 600.000000"
 preserveAspectRatio="xMidYMid meet">

<g transform="translate(0.000000,600.000000) scale(0.100000,-0.100000)"
fill="#000000" stroke="none">
<path d="M1850 5989 c-341 -15 -574 -55 -788 -135 -228 -85 -386 -187 -557
-359 -219 -218 -345 -448 -425 -775 -67 -277 -80 -548 -80 -1715 0 -1176 13
-1449 80 -1725 80 -327 206 -557 425 -775 297 -298 642 -440 1181 -486 77 -6
534 -13 1129 -16 1311 -6 1601 5 1902 77 326 78 559 205 778 425 298 297 440
642 486 1181 6 77 13 534 16 1129 6 1311 -5 1601 -77 1902 -78 326 -205 559
-425 778 -171 172 -329 274 -557 359 -222 83 -442 119 -828 136 -265 12 -1992
11 -2260 -1z m2354 -549 c300 -18 487 -60 658 -146 97 -49 147 -84 229 -162
170 -160 272 -363 319 -635 37 -218 44 -468 44 -1497 0 -1240 -12 -1455 -94
-1701 -55 -166 -120 -276 -228 -390 -160 -170 -363 -272 -635 -319 -218 -37
-468 -44 -1497 -44 -1029 0 -1279 7 -1497 44 -272 47 -475 149 -635 319 -108
114 -173 224 -228 390 -82 246 -94 461 -94 1701 0 1029 7 1279 44 1497 47 272
149 475 319 635 82 78 132 113 229 162 220 111 457 147 1042 160 324 7 1857
-4 2024 -14z"/>
<path d="M4468 4937 c-177 -75 -265 -257 -212 -437 21 -71 51 -117 114 -173
172 -154 458 -92 558 121 23 49 27 70 27 152 0 82 -4 103 -26 151 -37 79 -90
133 -167 171 -57 28 -79 33 -152 36 -71 2 -94 -1 -142 -21z"/>
<path d="M2739 4520 c-742 -131 -1279 -769 -1279 -1520 0 -853 687 -1540 1540
-1540 853 0 1540 687 1540 1540 0 755 -540 1393 -1287 1520 -151 26 -366 26
-514 0z m467 -544 c392 -84 691 -389 775 -791 7 -33 13 -116 13 -185 0 -182
-30 -306 -112 -463 -139 -267 -391 -454 -697 -518 -77 -16 -293 -16 -370 0
-306 64 -558 251 -697 518 -82 157 -112 281 -112 463 0 182 30 306 112 463
150 287 427 481 755 527 80 11 245 4 333 -14z"/>
</g>
</svg>
