<?xml version="1.0" standalone="no"?>
<!DOCTYPE svg PUBLIC "-//W3C//DTD SVG 20010904//EN"
 "http://www.w3.org/TR/2001/REC-SVG-20010904/DTD/svg10.dtd">
<svg version="1.0" xmlns="http://www.w3.org/2000/svg"
 width="1200.000000pt" height="1200.000000pt" viewBox="0 0 1200.000000 1200.000000"
 preserveAspectRatio="xMidYMid meet">

<g transform="translate(0.000000,1200.000000) scale(0.100000,-0.100000)"
fill="#000000" stroke="none">
<path d="M9650 10485 c-130 -26 -137 -29 -1100 -432 -256 -108 -564 -237 -685
-288 -121 -51 -350 -148 -510 -215 -159 -67 -432 -182 -605 -255 -173 -73
-457 -192 -630 -265 -173 -73 -387 -163 -475 -200 -88 -38 -275 -116 -415
-175 -419 -176 -566 -238 -1995 -840 -753 -318 -1518 -640 -1699 -716 -379
-159 -464 -207 -587 -330 -71 -70 -95 -102 -128 -171 -86 -177 -92 -344 -19
-525 67 -164 230 -327 430 -429 37 -18 248 -95 470 -169 222 -75 624 -211 893
-302 270 -90 506 -169 525 -175 19 -5 40 -15 46 -21 7 -7 51 -140 99 -297 47
-157 97 -319 110 -360 13 -41 81 -262 150 -490 320 -1048 369 -1198 436 -1333
71 -141 187 -270 281 -311 61 -27 191 -56 252 -56 102 0 252 44 333 98 22 15
285 249 583 520 l541 494 122 -93 c67 -51 295 -226 507 -389 212 -163 502
-385 645 -495 143 -110 323 -248 400 -307 106 -82 158 -115 215 -137 150 -58
201 -66 385 -65 155 1 178 3 260 28 213 65 363 180 492 378 81 125 70 85 198
743 42 215 116 595 165 845 139 709 254 1301 335 1715 83 427 123 630 231
1185 42 212 97 498 124 635 50 254 156 798 235 1205 24 124 81 412 126 640
106 543 115 605 100 741 -16 156 -55 256 -145 376 -85 112 -238 207 -386 238
-85 18 -220 18 -310 0z m90 -765 c0 -11 -14 -83 -151 -785 -49 -253 -110 -561
-134 -685 -24 -124 -80 -409 -124 -635 -44 -225 -119 -608 -166 -850 -47 -242
-106 -541 -130 -665 -24 -124 -78 -400 -120 -615 -42 -214 -82 -421 -90 -460
-8 -38 -49 -245 -90 -460 -42 -214 -116 -595 -165 -845 -49 -250 -119 -608
-155 -795 -36 -187 -71 -352 -77 -368 -18 -47 -62 -71 -118 -64 -63 8 -94 24
-199 106 -47 37 -203 157 -346 266 -143 109 -354 271 -470 360 -201 154 -826
633 -1137 872 -81 62 -152 113 -158 113 -8 0 -1135 -1018 -1292 -1168 -21 -20
-40 -34 -42 -31 -2 2 0 27 4 54 5 28 15 95 24 150 9 55 54 343 100 640 47 297
99 630 116 740 23 147 35 204 48 216 9 8 85 78 167 155 83 77 782 730 1555
1449 773 720 1527 1423 1675 1561 149 139 280 270 292 291 40 72 5 163 -62
163 -58 0 -152 -44 -330 -155 -104 -65 -424 -263 -710 -440 -286 -177 -889
-551 -1340 -830 -451 -280 -930 -577 -1065 -660 -353 -219 -984 -609 -1133
-702 l-129 -80 -231 78 c-1495 504 -1879 633 -1922 646 -49 15 -49 15 -25 28
14 7 507 215 1095 463 589 248 1633 688 2320 977 688 290 1349 569 1470 620
121 51 362 152 535 225 304 128 414 175 1175 495 193 81 474 199 625 262 151
64 412 173 580 243 168 71 311 129 318 129 6 1 12 -4 12 -9z"/>
</g>
</svg>
